<svg width="26" height="22" viewBox="0 0 26 22" fill="none" xmlns="http://www.w3.org/2000/svg">
<path d="M4.66667 1L1 5.8V18.6C1 19.2365 1.25754 19.847 1.71596 20.2971C2.17438 20.7471 2.79614 21 3.44444 21H22.5556C23.2039 21 23.8256 20.7471 24.284 20.2971C24.7425 19.847 25 19.2365 25 18.6V5.8L21.3333 1H4.66667Z" stroke="#172853" stroke-width="2" stroke-linecap="round" stroke-linejoin="round"/>
<path d="M1 6C1 6 4.36 10 13 10C21.64 10 25 6 25 6" stroke="#172853" stroke-width="2" stroke-linecap="round" stroke-linejoin="round"/>
<path d="M17 13C17 14.0609 16.5786 15.0783 15.8284 15.8284C15.0783 16.5786 14.0609 17 13 17C11.9391 17 10.9217 16.5786 10.1716 15.8284C9.42143 15.0783 9 14.0609 9 13" stroke="#172853" stroke-width="2" stroke-linecap="round" stroke-linejoin="round"/>
</svg>
