<svg width="24" height="24" viewBox="0 0 24 24" fill="none" xmlns="http://www.w3.org/2000/svg">
<path fill-rule="evenodd" clip-rule="evenodd" d="M6.26087 10.5217C3.90766 10.5217 2 8.61408 2 6.26087C2 3.90766 3.90766 2 6.26087 2C8.61408 2 10.5217 3.90766 10.5217 6.26087C10.5217 8.61408 8.61408 10.5217 6.26087 10.5217ZM6.26087 12.5217C9.71865 12.5217 12.5217 9.71865 12.5217 6.26087C12.5217 2.80309 9.71865 0 6.26087 0C2.80309 0 0 2.80309 0 6.26087C0 9.71865 2.80309 12.5217 6.26087 12.5217Z" fill="#B0B3BC"/>
<path fill-rule="evenodd" clip-rule="evenodd" d="M17.7389 21.9998C15.3857 21.9998 13.478 20.0921 13.478 17.7389C13.478 15.3857 15.3857 13.478 17.7389 13.478C20.0921 13.478 21.9998 15.3857 21.9998 17.7389C21.9998 20.0921 20.0921 21.9998 17.7389 21.9998ZM17.7389 23.9998C21.1967 23.9998 23.9998 21.1967 23.9998 17.7389C23.9998 14.2811 21.1967 11.478 17.7389 11.478C14.2811 11.478 11.478 14.2811 11.478 17.7389C11.478 21.1967 14.2811 23.9998 17.7389 23.9998Z" fill="#B0B3BC"/>
<path fill-rule="evenodd" clip-rule="evenodd" d="M6.26083 20.9567C5.06021 20.9567 4.08691 19.9834 4.08691 18.7828C4.08691 17.5822 5.06021 16.6089 6.26083 16.6089C7.46145 16.6089 8.43474 17.5822 8.43474 18.7828C8.43474 19.9834 7.46145 20.9567 6.26083 20.9567ZM6.26083 22.9567C8.56602 22.9567 10.4347 21.088 10.4347 18.7828C10.4347 16.4776 8.56602 14.6089 6.26083 14.6089C3.95564 14.6089 2.08691 16.4776 2.08691 18.7828C2.08691 21.088 3.95564 22.9567 6.26083 22.9567Z" fill="#B0B3BC"/>
<path fill-rule="evenodd" clip-rule="evenodd" d="M18.7828 8.43474C17.5822 8.43474 16.6089 7.46145 16.6089 6.26083C16.6089 5.06021 17.5822 4.08691 18.7828 4.08691C19.9834 4.08691 20.9567 5.06021 20.9567 6.26083C20.9567 7.46145 19.9834 8.43474 18.7828 8.43474ZM18.7828 10.4347C21.088 10.4347 22.9567 8.56602 22.9567 6.26083C22.9567 3.95564 21.088 2.08691 18.7828 2.08691C16.4776 2.08691 14.6089 3.95564 14.6089 6.26083C14.6089 8.56602 16.4776 10.4347 18.7828 10.4347Z" fill="#B0B3BC"/>
</svg>
